PathFileType	4	(X/Y/Z)	Patient4_TMGait_0pt4_01_left_07.trc.trc
DataRate	CameraRate	NumFrames	NumMarkers	Units	OrigDataRate	OrigDataStartFrame	OrigNumFrames
74.866310160428	74.866310160428	6	33	mm	74.866310160428	36	       141
Frame#	Time	Sacral			L.Shoulder			Chest			R.Shoulder			Neck			R.ASIS			L.ASIS			R.Thigh.Superior			R.Thigh.Lateral			R.Thigh.Inferior			R.Patella			L.Thigh.Superior			L.Thigh.Lateral			L.Thigh.Inferior			L.Patella			L.Shank.Superior			L.Shank.Lateral			L.Shank.Inferior			R.Shank.Superior			R.Shank.Lateral			R.Shank.Inferior			R.Heel			R.Midfoot.Superior			R.Midfoot.Lateral			R.Toe			L.Heel			L.Midfoot.Lateral			L.Midfoot.Superior			L.Toe			L.Elbow			L.Wrist			R.Elbow			R.Wrist			
		X1	Y1	Z1	X2	Y2	Z2	X3	Y3	Z3	X4	Y4	Z4	X5	Y5	Z5	X6	Y6	Z6	X7	Y7	Z7	X8	Y8	Z8	X9	Y9	Z9	X10	Y10	Z10	X11	Y11	Z11	X12	Y12	Z12	X13	Y13	Z13	X14	Y14	Z14	X15	Y15	Z15	X16	Y16	Z16	X17	Y17	Z17	X18	Y18	Z18	X19	Y19	Z19	X20	Y20	Z20	X21	Y21	Z21	X22	Y22	Z22	X23	Y23	Z23	X24	Y24	Z24	X25	Y25	Z25	X26	Y26	Z26	X27	Y27	Z27	X28	Y28	Z28	X29	Y29	Z29	X30	Y30	Z30	X31	Y31	Z31	X32	Y32	Z32	X33	Y33	Z33	

36	8.427500000000	797.639463652711	1003.085562002439	510.641921020744	944.018125559479	1430.691691974935	308.574992236407	1064.699618975462	1369.391598207057	459.563713081620	997.696439557216	1444.588933373138	640.221525468925	942.394080112386	1495.907383979899	462.437208071761	1034.794465311266	939.155499861847	608.386576609379	999.173706772050	964.994412288441	335.412561395864	1045.078740615669	728.361792604472	581.921256542485	951.342588208964	628.220056926582	648.414701670017	1016.893588347213	564.060250835457	569.429023166033	1002.127225212323	466.885217316389	582.599511161502	1067.093311535065	762.603678909830	368.368192392283	993.703158712444	637.267088402915	306.898841647925	1085.811498751697	567.496882469463	369.844275190451	1092.066186079150	496.929415664277	377.589897604597	1067.168265581244	423.228894047284	368.695133984726	981.104251565040	306.906403037243	316.919046907120	1036.628623758599	196.098093915951	384.821207469678	943.779059517715	390.759987743840	590.418516046289	843.883580697405	316.475533372278	655.717275014545	853.499077154072	210.854000013623	597.098449490307	677.653310653022	78.061601566696	573.072641737769	855.358353183616	101.535223258660	607.856470518462	759.024288611024	53.117208647211	644.654269417800	963.890530181202	37.274774084407	632.976631972704	914.025402476045	38.044847686873	424.803428383856	986.047790040967	36.127414389680	342.597729793742	1069.125481320051	97.389482816377	368.147770885049	1197.183147015821	47.348418911381	335.848929877332	870.090765753861	1080.347203542268	213.217487779327	924.210065359214	824.889108142941	200.952678041238	1031.007974963467	1097.803162191717	762.801128628686	1212.943014272519	921.577679828542	711.494073668250	
37	8.440857142857	797.754732751067	1003.530177010947	506.455524626810	944.441497700719	1431.767740541498	305.196012661446	1063.841477855248	1370.819129018866	457.298647838690	994.860046196809	1445.696346627474	637.297875092356	941.208503645121	1496.823385126846	459.185089052826	1034.313129738468	940.624135012226	605.817088392413	1000.476104701060	965.931765335358	332.646719482435	1047.378921549311	729.950992582579	580.035541640741	955.194006603838	628.914502854280	646.611157047462	1022.486730012345	565.071731552792	568.428298425073	1008.746465875363	466.404214596505	583.150085477217	1067.002800758509	761.936034522574	365.343928079328	991.565251799705	637.147463790578	305.071268809808	1082.980323588002	566.656784534904	367.982760574330	1088.642767152033	496.391144170796	376.420009683481	1063.526288844427	422.809445044064	367.696704690058	977.166432160081	306.669786026072	316.341659323788	1031.963588064428	195.851640789504	384.548425561207	948.168897658999	391.261905367006	590.647192022108	845.838587681696	319.806292451372	655.260627355310	853.863676714606	213.420823312500	597.733578758808	674.863676831066	85.293189388088	573.566298884046	853.040590705460	102.408840489899	608.373335756174	755.261692769352	57.021182010300	644.902663529132	958.829723614169	36.975038398407	632.938702991625	908.745009548928	38.082063779889	424.809667199388	980.747179900862	36.111482019488	342.595734948359	1063.935003155995	97.298303947677	368.150793756411	1191.968762043382	46.928271610513	335.769610044127	874.204155886233	1081.013730068088	208.106784366153	935.159696390271	826.941183256206	196.625884313131	1020.960383805772	1098.593565062981	760.937481432288	1193.625693279397	911.217488935344	715.383459850429	
38	8.454214285714	797.731838457911	1003.914218023040	502.217690992438	945.021728559991	1432.799044296809	301.804621321568	1062.989815210386	1372.138739231247	455.088695570221	991.933108600156	1446.655976582243	634.388769535527	940.045228879136	1497.653276675437	455.946217802282	1033.657579965224	942.036705425727	603.282562138307	1001.745464174258	966.761684168452	329.939218604976	1049.992329456374	731.609378291039	578.226264897695	959.611042163920	629.570219740918	644.963111037997	1028.752092385828	566.167441528800	567.576556382878	1016.090428370937	466.068168071682	583.857066985252	1066.669826751316	761.144070787537	362.463894188206	989.305052557876	637.034719076091	303.148496245497	1079.915663651676	565.807419759615	366.140703322186	1084.925692357139	495.818405909113	375.169929965846	1059.639339329403	422.374128237207	366.601500388010	973.040999899315	306.365967726347	315.645345719645	1027.158175436879	195.572296508007	384.207553918807	953.352775476445	391.838608442088	591.014035021074	848.576225895382	323.397723732615	654.919218991305	854.890375372447	216.293194719897	598.474741694752	672.666158461358	93.457329536934	574.093773260654	851.085210106662	103.457289167704	608.878282823353	751.817008116883	61.588802427887	645.181697349132	953.743151283874	36.609336543492	632.899573862315	903.390677719707	38.096120132739	424.826170171845	975.373690516875	36.075505215319	342.595771496740	1058.687945308997	97.165787546347	368.161159307172	1186.698119868301	46.428573520977	335.719929336079	878.385757277203	1081.751345690650	202.842831191045	946.622538605122	829.357917119474	192.346674506447	1010.931340126926	1099.440544177796	759.017498034256	1173.540640024155	901.410637810417	719.454358873439	
39	8.467571428571	797.526243076452	1004.189149519160	497.949925780330	945.738727569165	1433.714133011849	298.429884641686	1062.139991748321	1373.281825293069	452.949728169315	988.941587584113	1447.417770470176	631.515165598885	938.909985410691	1498.349021091350	452.738401310242	1032.803890763097	943.324184331178	600.793070462643	1002.939890624470	967.446450982950	327.300860182707	1052.915063860003	733.329932449235	576.486687123936	964.592657033741	630.176937453240	643.468408840368	1035.669681719576	567.350459608027	566.861562647395	1024.124921009059	465.895065116484	584.652437452215	1066.109631388298	760.264485087693	359.780663047786	987.040302553034	636.931832065012	301.112629010456	1076.730204707037	564.967104856959	364.319432919114	1081.033957020831	495.212533348927	373.825865802627	1055.617276460816	421.912314685342	365.397137566897	968.825354149052	306.000943521015	314.796248572518	1022.275621886237	195.259442098639	383.783282467155	959.313623914744	392.490191516480	591.458958035826	852.124513021054	327.236691375741	654.671703804856	856.569243607504	219.484735890177	599.275588618958	671.124786710670	102.594398699217	574.632106169284	849.491839745088	104.785018753467	609.363890533387	748.729109940018	66.910636956809	645.475286140324	948.638938247625	36.137190205781	632.874150925251	897.991948471984	38.092200922885	424.834747755222	969.958674180751	36.022688180799	342.580205868708	1053.405406162359	97.005428943090	368.159947839907	1181.398040628593	45.883284871231	335.692085185573	882.669552272157	1082.478183496520	197.441488239250	958.537744123602	832.079405835963	188.121887580192	1000.889468861997	1100.276788059667	757.058770463575	1152.797157899361	892.281535298000	723.643603528207	
40	8.480928571429	797.102481573303	1004.320049987592	493.674296404521	946.562551888277	1434.453901286398	295.103036822868	1061.283966649352	1374.196434277832	450.896572868316	985.909660745421	1447.949480337175	628.697686365784	937.809144884501	1498.876222676980	449.581170501593	1031.737837903814	944.431357220561	598.363773480033	1004.020375097186	967.959860991486	324.744028976426	1056.117429758555	735.119222552796	574.811499251931	970.096361783187	630.746603370391	642.115996141437	1043.175434777367	568.641997404537	566.263734034016	1032.778876427372	465.914784986848	585.461104856631	1065.353880228355	759.334747747447	357.307528308718	984.843784690009	636.832446516563	298.966683340947	1073.521487285538	564.145108687554	362.506205257742	1077.082423777568	494.575029774795	372.379088452604	1051.559795707585	421.414887983473	364.080496680572	964.595650375830	305.584377534824	313.785882765612	1017.370162637269	194.914497327074	383.268969956614	965.993849511506	393.233193538160	591.914907467841	856.471496524410	331.313958439229	654.486887284243	858.862294985001	223.012670022338	600.080468159522	670.287360719311	112.705908733358	575.147651540022	848.260560092681	106.515762441120	609.831846475530	746.036472042773	73.057163261962	645.759535753647	943.541406149541	35.529917542191	632.879414596685	892.575502198563	38.076037142062	424.824050106519	964.528482725699	35.956830302207	342.537597098189	1048.105377639658	96.829800460134	368.132604293303	1176.090047981738	45.324178664792	335.677026389734	887.099386872871	1083.121406200924	191.930117452757	970.842784265054	835.045153477739	183.958479476757	990.793571054004	1101.056078218913	755.079162821885	1131.520443302925	883.940948013547	727.881297092629	
41	8.494285714286	796.440354266870	1004.289333967965	489.415209550825	947.456723265633	1434.977289156001	291.854657620217	1060.410862061870	1374.853167343552	448.942636813407	982.856036624958	1448.241312923970	625.954816129662	936.748236969949	1499.218118069733	446.493032640855	1030.457050465844	945.324004554608	596.015712882065	1004.954283578345	968.289329832435	322.284560374908	1059.542436083560	736.995050839649	573.197953078173	976.037105243775	631.311947075245	640.886879134404	1051.159869417829	570.079208051598	565.756831868745	1041.944830481379	466.166838863498	586.207639970310	1064.444950418408	758.387867849646	355.023120668723	982.743063384971	636.724640321728	296.733224936141	1070.363928015170	563.343512044274	360.680917235590	1073.169434953289	493.908251718598	370.828941041365	1047.546770617613	420.876005849658	362.659717417222	960.402878288999	305.129116827774	312.626271837308	1012.481740137926	194.541283916989	382.667108248977	973.296608074426	394.098968007853	592.314778807237	861.562454575927	335.621429403452	654.325865121672	861.707960314881	226.891589567685	600.828825704846	670.181890744490	123.734174140978	575.594769938458	847.397271174171	108.775530178538	610.290603802974	743.778954194428	80.058664060684	646.002908462959	938.499396755162	34.782511034476	632.932198337856	887.161717311417	38.053403934334	424.788946533171	959.102002879762	35.881900493392	342.462790060827	1042.800841745503	96.649507610888	368.069911323477	1170.788345212046	44.777725440875	335.666369177727	891.722569775850	1083.625220484091	186.348015904388	983.475099205893	838.201029916950	179.864606292933	980.603192002354	1101.759878472240	753.094981485943	1109.848742271365	876.482517653420	732.092968351397	
